<svg width="161" height="36" viewBox="0 0 161 36" fill="none" xmlns="http://www.w3.org/2000/svg">
<g clip-path="url(#clip0_1179_601)">
<mask id="mask0_1179_601" style="mask-type:luminance" maskUnits="userSpaceOnUse" x="0" y="2" width="32" height="32">
<path d="M32 2H0V34H32V2Z" fill="white"/>
</mask>
<g mask="url(#mask0_1179_601)">
<path fill-rule="evenodd" clip-rule="evenodd" d="M16 5.52C16 3.57596 14.424 2 12.48 2H3.52C1.57596 2 0 3.57596 0 5.52V14.5951C0 16.5392 1.57596 18.115 3.52 18.115H12.48C14.424 18.115 16 19.691 16 21.635V30.48C16 32.424 17.576 34 19.52 34H28.48C30.424 34 32 32.424 32 30.48V21.4048C32 19.4608 30.424 17.8849 28.48 17.8849H19.52C17.576 17.8849 16 16.3089 16 14.3649V5.52Z" fill="#000080"/>
</g>
</g>
<path d="M52.75 28H46.4659V7.63636H53.0284C55.0038 7.63636 56.6941 8.04403 58.0994 8.85938C59.5047 9.66809 60.5819 10.8314 61.331 12.3494C62.08 13.8608 62.4545 15.6705 62.4545 17.7784C62.4545 19.8996 62.0767 21.7259 61.321 23.2571C60.5653 24.7817 59.465 25.955 58.0199 26.777C56.5748 27.5923 54.8182 28 52.75 28ZM48.9318 25.8125H52.5909C54.2746 25.8125 55.67 25.4877 56.777 24.8381C57.884 24.1884 58.7093 23.2637 59.2528 22.0639C59.7964 20.8641 60.0682 19.4356 60.0682 17.7784C60.0682 16.1345 59.7997 14.7192 59.2628 13.5327C58.7259 12.3395 57.9238 11.4247 56.8565 10.7884C55.7893 10.1454 54.4602 9.82386 52.8693 9.82386H48.9318V25.8125ZM72.1973 28.3182C70.8185 28.3182 69.6087 27.9901 68.568 27.3338C67.5339 26.6776 66.7252 25.7595 66.1419 24.5795C65.5652 23.3996 65.2768 22.0208 65.2768 20.4432C65.2768 18.8523 65.5652 17.4635 66.1419 16.277C66.7252 15.0904 67.5339 14.169 68.568 13.5128C69.6087 12.8565 70.8185 12.5284 72.1973 12.5284C73.5761 12.5284 74.7825 12.8565 75.8166 13.5128C76.8573 14.169 77.666 15.0904 78.2427 16.277C78.8261 17.4635 79.1177 18.8523 79.1177 20.4432C79.1177 22.0208 78.8261 23.3996 78.2427 24.5795C77.666 25.7595 76.8573 26.6776 75.8166 27.3338C74.7825 27.9901 73.5761 28.3182 72.1973 28.3182ZM72.1973 26.2102C73.2446 26.2102 74.1064 25.9418 74.7825 25.4048C75.4586 24.8679 75.9591 24.1619 76.2839 23.2869C76.6087 22.4119 76.7711 21.464 76.7711 20.4432C76.7711 19.4223 76.6087 18.4711 76.2839 17.5895C75.9591 16.7079 75.4586 15.9953 74.7825 15.4517C74.1064 14.9081 73.2446 14.6364 72.1973 14.6364C71.1499 14.6364 70.2882 14.9081 69.612 15.4517C68.9359 15.9953 68.4354 16.7079 68.1106 17.5895C67.7858 18.4711 67.6234 19.4223 67.6234 20.4432C67.6234 21.464 67.7858 22.4119 68.1106 23.2869C68.4354 24.1619 68.9359 24.8679 69.612 25.4048C70.2882 25.9418 71.1499 26.2102 72.1973 26.2102ZM82.4198 28V12.7273H84.6868V15.1136H84.8857C85.2038 14.2983 85.7176 13.6652 86.4269 13.2145C87.1361 12.7571 87.9879 12.5284 88.9823 12.5284C89.9898 12.5284 90.8284 12.7571 91.4979 13.2145C92.174 13.6652 92.701 14.2983 93.0788 15.1136H93.2379C93.629 14.3248 94.2157 13.6984 94.9979 13.2344C95.7801 12.7637 96.7181 12.5284 97.8118 12.5284C99.1773 12.5284 100.294 12.956 101.163 13.8111C102.031 14.6596 102.465 15.982 102.465 17.7784V28H100.119V17.7784C100.119 16.6515 99.8104 15.8461 99.1939 15.3622C98.5774 14.8783 97.8516 14.6364 97.0163 14.6364C95.9425 14.6364 95.1106 14.9612 94.5206 15.6108C93.9306 16.2538 93.6357 17.0691 93.6357 18.0568V28H91.2493V17.5398C91.2493 16.6714 90.9676 15.9721 90.4041 15.4418C89.8407 14.9048 89.1148 14.6364 88.2266 14.6364C87.6167 14.6364 87.0467 14.7988 86.5163 15.1236C85.9927 15.4484 85.5684 15.8991 85.2436 16.4759C84.9254 17.0459 84.7663 17.7055 84.7663 18.4545V28H82.4198ZM106.476 28V12.7273H108.822V28H106.476ZM107.669 10.1818C107.211 10.1818 106.817 10.026 106.486 9.71449C106.161 9.40294 105.998 9.02841 105.998 8.59091C105.998 8.15341 106.161 7.77888 106.486 7.46733C106.817 7.15578 107.211 7 107.669 7C108.126 7 108.517 7.15578 108.842 7.46733C109.174 7.77888 109.339 8.15341 109.339 8.59091C109.339 9.02841 109.174 9.40294 108.842 9.71449C108.517 10.026 108.126 10.1818 107.669 10.1818ZM115.187 18.8125V28H112.84V12.7273H115.107V15.1136H115.306C115.664 14.3381 116.208 13.715 116.937 13.2443C117.666 12.767 118.607 12.5284 119.761 12.5284C120.795 12.5284 121.7 12.7405 122.475 13.1648C123.251 13.5824 123.854 14.2188 124.285 15.0739C124.716 15.9223 124.931 16.9962 124.931 18.2955V28H122.585V18.4545C122.585 17.2547 122.273 16.3201 121.65 15.6506C121.027 14.9744 120.172 14.6364 119.085 14.6364C118.335 14.6364 117.666 14.7988 117.076 15.1236C116.493 15.4484 116.032 15.9223 115.694 16.5455C115.356 17.1686 115.187 17.9242 115.187 18.8125ZM135.104 34.0455C133.97 34.0455 132.996 33.8996 132.181 33.608C131.365 33.3229 130.686 32.9451 130.142 32.4744C129.605 32.0104 129.178 31.5133 128.86 30.983L130.729 29.6705C130.941 29.9489 131.209 30.267 131.534 30.625C131.859 30.9896 132.303 31.3045 132.867 31.5696C133.437 31.8414 134.183 31.9773 135.104 31.9773C136.337 31.9773 137.354 31.679 138.156 31.0824C138.959 30.4858 139.36 29.5511 139.36 28.2784V25.1761H139.161C138.988 25.4545 138.743 25.7992 138.425 26.2102C138.113 26.6146 137.663 26.9759 137.073 27.294C136.489 27.6056 135.7 27.7614 134.706 27.7614C133.473 27.7614 132.366 27.4697 131.385 26.8864C130.411 26.303 129.638 25.4545 129.068 24.3409C128.505 23.2273 128.223 21.875 128.223 20.2841C128.223 18.7197 128.498 17.3575 129.049 16.1974C129.599 15.0308 130.364 14.1293 131.345 13.4929C132.326 12.8499 133.46 12.5284 134.746 12.5284C135.74 12.5284 136.529 12.6941 137.112 13.0256C137.702 13.3504 138.153 13.7216 138.465 14.1392C138.783 14.5502 139.028 14.8883 139.2 15.1534H139.439V12.7273H141.706V28.4375C141.706 29.75 141.408 30.8172 140.811 31.6392C140.221 32.4678 139.426 33.0743 138.425 33.4588C137.431 33.8499 136.324 34.0455 135.104 34.0455ZM135.024 25.6534C135.966 25.6534 136.761 25.438 137.411 25.0071C138.06 24.5762 138.554 23.9564 138.892 23.1477C139.23 22.339 139.399 21.3712 139.399 20.2443C139.399 19.1439 139.234 18.1728 138.902 17.331C138.571 16.4891 138.08 15.8295 137.431 15.3523C136.781 14.875 135.979 14.6364 135.024 14.6364C134.03 14.6364 133.201 14.8883 132.539 15.392C131.882 15.8958 131.388 16.572 131.057 17.4205C130.732 18.2689 130.57 19.2102 130.57 20.2443C130.57 21.3049 130.736 22.2429 131.067 23.0582C131.405 23.867 131.902 24.5033 132.558 24.9673C133.221 25.4247 134.043 25.6534 135.024 25.6534ZM151.926 28.3182C150.547 28.3182 149.338 27.9901 148.297 27.3338C147.263 26.6776 146.454 25.7595 145.871 24.5795C145.294 23.3996 145.006 22.0208 145.006 20.4432C145.006 18.8523 145.294 17.4635 145.871 16.277C146.454 15.0904 147.263 14.169 148.297 13.5128C149.338 12.8565 150.547 12.5284 151.926 12.5284C153.305 12.5284 154.511 12.8565 155.545 13.5128C156.586 14.169 157.395 15.0904 157.972 16.277C158.555 17.4635 158.847 18.8523 158.847 20.4432C158.847 22.0208 158.555 23.3996 157.972 24.5795C157.395 25.7595 156.586 26.6776 155.545 27.3338C154.511 27.9901 153.305 28.3182 151.926 28.3182ZM151.926 26.2102C152.974 26.2102 153.835 25.9418 154.511 25.4048C155.188 24.8679 155.688 24.1619 156.013 23.2869C156.338 22.4119 156.5 21.464 156.5 20.4432C156.5 19.4223 156.338 18.4711 156.013 17.5895C155.688 16.7079 155.188 15.9953 154.511 15.4517C153.835 14.9081 152.974 14.6364 151.926 14.6364C150.879 14.6364 150.017 14.9081 149.341 15.4517C148.665 15.9953 148.164 16.7079 147.84 17.5895C147.515 18.4711 147.352 19.4223 147.352 20.4432C147.352 21.464 147.515 22.4119 147.84 23.2869C148.164 24.1619 148.665 24.8679 149.341 25.4048C150.017 25.9418 150.879 26.2102 151.926 26.2102Z" fill="#000080"/>
<defs>
<clipPath id="clip0_1179_601">
<rect width="32" height="32" fill="white" transform="translate(0 2)"/>
</clipPath>
</defs>
</svg>
